<?xml version="1.0" encoding="UTF-8"?>
<!DOCTYPE svg PUBLIC "-//W3C//DTD SVG 1.1//EN" "http://www.w3.org/Graphics/SVG/1.1/DTD/svg11.dtd">
<svg xmlns="http://www.w3.org/2000/svg" version="1.1" width="640px" height="640px" style="shape-rendering:geometricPrecision; text-rendering:geometricPrecision; image-rendering:optimizeQuality; fill-rule:evenodd; clip-rule:evenodd" xmlns:xlink="http://www.w3.org/1999/xlink">
<g><path style="opacity:1" fill="#f4f4f4" d="M -0.5,-0.5 C 212.833,-0.5 426.167,-0.5 639.5,-0.5C 639.5,212.833 639.5,426.167 639.5,639.5C 426.167,639.5 212.833,639.5 -0.5,639.5C -0.5,426.167 -0.5,212.833 -0.5,-0.5 Z"/></g>
<g><path style="opacity:1" fill="#010101" d="M 139.5,17.5 C 142.152,17.5905 144.485,16.9238 146.5,15.5C 150.472,14.8918 154.472,14.3918 158.5,14C 211.833,13.8333 265.167,13.6667 318.5,13.5C 374.524,13.35 430.524,13.85 486.5,15C 552.978,25.8229 597.145,62.9896 619,126.5C 621.558,137.076 623.558,147.743 625,158.5C 625.667,265.167 625.667,371.833 625,478.5C 617.915,540.575 586.415,585.075 530.5,612C 513.798,618.842 496.465,623.176 478.5,625C 368.813,625.981 259.146,625.648 149.5,624C 92.2579,614.149 51.4246,582.983 27,530.5C 20.0008,513.835 15.6675,496.502 14,478.5C 13.0188,368.813 13.3521,259.146 15,149.5C 25.8744,89.8835 59.041,48.0502 114.5,24C 122.568,20.754 130.901,18.5873 139.5,17.5 Z"/></g>
<g><path style="opacity:1" fill="#484848" d="M 146.5,15.5 C 144.485,16.9238 142.152,17.5905 139.5,17.5C 141.515,16.0762 143.848,15.4095 146.5,15.5 Z"/></g>
<g><path style="opacity:1" fill="#aeaeae" d="M 238.5,136.5 C 201.663,136.168 164.996,136.502 128.5,137.5C 127.957,137.44 127.624,137.107 127.5,136.5C 164.664,135.17 201.664,135.17 238.5,136.5 Z"/></g>
<g><path style="opacity:1" fill="#adadad" d="M 464.5,136.5 C 476.34,135.175 488.34,135.175 500.5,136.5C 500.376,137.107 500.043,137.44 499.5,137.5C 488.012,136.505 476.345,136.172 464.5,136.5 Z"/></g>
<g><path style="opacity:1" fill="#fbfbfb" d="M 238.5,136.5 C 271.926,181.022 305.593,225.355 339.5,269.5C 381.555,225.448 423.221,181.115 464.5,136.5C 476.345,136.172 488.012,136.505 499.5,137.5C 451.487,188.846 403.821,240.513 356.5,292.5C 409.191,362.185 461.858,431.852 514.5,501.5C 478.004,502.498 441.337,502.832 404.5,502.5C 367.842,454.53 331.176,406.53 294.5,358.5C 250.151,406.847 205.484,454.847 160.5,502.5C 148.655,502.828 136.988,502.495 125.5,501.5C 174.094,448.069 223.26,395.069 273,342.5C 274.515,340.323 276.015,338.156 277.5,336C 228.016,269.684 178.349,203.518 128.5,137.5C 164.996,136.502 201.663,136.168 238.5,136.5 Z"/></g>
<g><path style="opacity:1" fill="#2f2f2f" d="M 224.5,163.5 C 210.323,163.171 196.323,163.504 182.5,164.5C 181.957,164.44 181.624,164.107 181.5,163.5C 195.994,162.174 210.328,162.174 224.5,163.5 Z"/></g>
<g><path style="opacity:1" fill="#030303" d="M 224.5,163.5 C 257.208,205.227 289.208,247.56 320.5,290.5C 313.173,299.159 305.507,307.493 297.5,315.5C 294.777,313.066 292.277,310.399 290,307.5C 254.335,259.673 218.501,212.007 182.5,164.5C 196.323,163.504 210.323,163.171 224.5,163.5 Z"/></g>
<g><path style="opacity:1" fill="#030303" d="M 459.5,474.5 C 445.677,475.496 431.677,475.829 417.5,475.5C 382.858,429.852 348.191,384.185 313.5,338.5C 321.16,329.507 329.16,320.84 337.5,312.5C 378.6,366.254 419.266,420.254 459.5,474.5 Z"/></g>
<g><path style="opacity:1" fill="#2e2e2e" d="M 459.5,474.5 C 460.289,474.783 460.956,475.283 461.5,476C 446.661,476.828 431.994,476.661 417.5,475.5C 431.677,475.829 445.677,475.496 459.5,474.5 Z"/></g>
<g><path style="opacity:1" fill="#ababab" d="M 125.5,501.5 C 136.988,502.495 148.655,502.828 160.5,502.5C 148.34,503.66 136.007,503.827 123.5,503C 124.044,502.283 124.711,501.783 125.5,501.5 Z"/></g>
<g><path style="opacity:1" fill="#adadad" d="M 514.5,501.5 C 515.043,501.56 515.376,501.893 515.5,502.5C 478.336,503.83 441.336,503.83 404.5,502.5C 441.337,502.832 478.004,502.498 514.5,501.5 Z"/></g>
</svg>
